<mxfile host="app.diagrams.net" agent="Mozilla/5.0 (Macintosh; Intel Mac OS X 10_15_7) AppleWebKit/537.36 (KHTML, like Gecko) Chrome/133.0.0.0 Safari/537.36" version="26.0.16">
  <diagram name="Page-1" id="42789a77-a242-8287-6e28-9cd8cfd52e62">
    <mxGraphModel dx="1434" dy="646" grid="1" gridSize="10" guides="1" tooltips="1" connect="1" arrows="1" fold="1" page="1" pageScale="1" pageWidth="1100" pageHeight="850" background="none" math="0" shadow="0">
      <root>
        <mxCell id="0" />
        <mxCell id="1" parent="0" />
        <mxCell id="1ea317790d2ca983-21" value="send msg" style="edgeStyle=none;rounded=1;html=1;labelBackgroundColor=none;startArrow=none;startFill=0;startSize=5;endArrow=classicThin;endFill=1;endSize=5;jettySize=auto;orthogonalLoop=1;strokeColor=#B3B3B3;strokeWidth=1;fontFamily=Verdana;fontSize=12" parent="1" source="1ea317790d2ca983-2" target="1ea317790d2ca983-7" edge="1">
          <mxGeometry relative="1" as="geometry" />
        </mxCell>
        <mxCell id="1ea317790d2ca983-22" value="" style="edgeStyle=none;rounded=1;html=1;labelBackgroundColor=none;startArrow=none;startFill=0;startSize=5;endArrow=classicThin;endFill=1;endSize=5;jettySize=auto;orthogonalLoop=1;strokeColor=#B3B3B3;strokeWidth=1;fontFamily=Verdana;fontSize=12" parent="1" source="1ea317790d2ca983-2" target="1ea317790d2ca983-6" edge="1">
          <mxGeometry relative="1" as="geometry" />
        </mxCell>
        <mxCell id="1ea317790d2ca983-2" value="sdata" style="ellipse;whiteSpace=wrap;html=1;rounded=0;shadow=1;comic=0;labelBackgroundColor=none;strokeWidth=1;fontFamily=Verdana;fontSize=12;align=center;" parent="1" vertex="1">
          <mxGeometry x="835" y="250" width="75" height="50" as="geometry" />
        </mxCell>
        <mxCell id="1ea317790d2ca983-23" value="" style="edgeStyle=none;rounded=1;html=1;labelBackgroundColor=none;startArrow=none;startFill=0;startSize=5;endArrow=classicThin;endFill=1;endSize=5;jettySize=auto;orthogonalLoop=1;strokeColor=#B3B3B3;strokeWidth=1;fontFamily=Verdana;fontSize=12;entryX=0.4;entryY=0.2;entryDx=0;entryDy=0;entryPerimeter=0;" parent="1" source="1ea317790d2ca983-6" target="zeWfey3r2QctQwpU4ACz-8" edge="1">
          <mxGeometry relative="1" as="geometry" />
        </mxCell>
        <mxCell id="1ea317790d2ca983-6" value="sdata-trans" style="ellipse;whiteSpace=wrap;html=1;rounded=0;shadow=1;comic=0;labelBackgroundColor=none;strokeWidth=1;fontFamily=Verdana;fontSize=12;align=center;" parent="1" vertex="1">
          <mxGeometry x="897" y="382" width="75" height="50" as="geometry" />
        </mxCell>
        <mxCell id="1ea317790d2ca983-24" value="" style="edgeStyle=none;rounded=1;html=1;labelBackgroundColor=none;startArrow=none;startFill=0;startSize=5;endArrow=classicThin;endFill=1;endSize=5;jettySize=auto;orthogonalLoop=1;strokeColor=#B3B3B3;strokeWidth=1;fontFamily=Verdana;fontSize=12" parent="1" source="1ea317790d2ca983-7" target="zeWfey3r2QctQwpU4ACz-7" edge="1">
          <mxGeometry relative="1" as="geometry" />
        </mxCell>
        <mxCell id="1ea317790d2ca983-7" value="sata-trans" style="ellipse;whiteSpace=wrap;html=1;rounded=0;shadow=1;comic=0;labelBackgroundColor=none;strokeWidth=1;fontFamily=Verdana;fontSize=12;align=center;" parent="1" vertex="1">
          <mxGeometry x="690" y="382" width="75" height="50" as="geometry" />
        </mxCell>
        <mxCell id="1ea317790d2ca983-8" value="service-his" style="ellipse;whiteSpace=wrap;html=1;rounded=0;shadow=1;comic=0;labelBackgroundColor=none;strokeWidth=1;fontFamily=Verdana;fontSize=12;align=center;" parent="1" vertex="1">
          <mxGeometry x="835" y="520" width="75" height="50" as="geometry" />
        </mxCell>
        <mxCell id="zeWfey3r2QctQwpU4ACz-2" value="data-center" style="ellipse;whiteSpace=wrap;html=1;rounded=0;shadow=1;comic=0;labelBackgroundColor=none;strokeWidth=1;fontFamily=Verdana;fontSize=12;align=center;" vertex="1" parent="1">
          <mxGeometry x="560" y="130" width="75" height="50" as="geometry" />
        </mxCell>
        <mxCell id="zeWfey3r2QctQwpU4ACz-3" value="报表" style="ellipse;whiteSpace=wrap;html=1;rounded=0;shadow=1;comic=0;labelBackgroundColor=none;strokeWidth=1;fontFamily=Verdana;fontSize=12;align=center;" vertex="1" parent="1">
          <mxGeometry x="700" y="130" width="75" height="50" as="geometry" />
        </mxCell>
        <mxCell id="zeWfey3r2QctQwpU4ACz-5" value="债券计算服务" style="ellipse;whiteSpace=wrap;html=1;rounded=0;shadow=1;comic=0;labelBackgroundColor=none;strokeWidth=1;fontFamily=Verdana;fontSize=12;align=center;" vertex="1" parent="1">
          <mxGeometry x="975" y="130" width="75" height="50" as="geometry" />
        </mxCell>
        <mxCell id="zeWfey3r2QctQwpU4ACz-6" value="hbase" style="ellipse;whiteSpace=wrap;html=1;rounded=0;shadow=1;comic=0;labelBackgroundColor=none;strokeWidth=1;fontFamily=Verdana;fontSize=12;align=center;" vertex="1" parent="1">
          <mxGeometry x="1110" y="130" width="75" height="50" as="geometry" />
        </mxCell>
        <mxCell id="zeWfey3r2QctQwpU4ACz-7" value="qsar" style="ellipse;whiteSpace=wrap;html=1;rounded=0;shadow=1;comic=0;labelBackgroundColor=none;strokeWidth=1;fontFamily=Verdana;fontSize=12;align=center;" vertex="1" parent="1">
          <mxGeometry x="725" y="520" width="75" height="50" as="geometry" />
        </mxCell>
        <mxCell id="zeWfey3r2QctQwpU4ACz-8" value="service-rt" style="ellipse;whiteSpace=wrap;html=1;rounded=0;shadow=1;comic=0;labelBackgroundColor=none;strokeWidth=1;fontFamily=Verdana;fontSize=12;align=center;" vertex="1" parent="1">
          <mxGeometry x="945" y="520" width="75" height="50" as="geometry" />
        </mxCell>
        <mxCell id="zeWfey3r2QctQwpU4ACz-9" value="sata-trans" style="ellipse;whiteSpace=wrap;html=1;rounded=0;shadow=1;comic=0;labelBackgroundColor=none;strokeWidth=1;fontFamily=Verdana;fontSize=12;align=center;" vertex="1" parent="1">
          <mxGeometry x="793" y="382" width="75" height="50" as="geometry" />
        </mxCell>
        <mxCell id="zeWfey3r2QctQwpU4ACz-11" value="" style="edgeStyle=none;rounded=1;html=1;labelBackgroundColor=none;startArrow=none;startFill=0;startSize=5;endArrow=classicThin;endFill=1;endSize=5;jettySize=auto;orthogonalLoop=1;strokeColor=#B3B3B3;strokeWidth=1;fontFamily=Verdana;fontSize=12;exitX=0.5;exitY=1;exitDx=0;exitDy=0;" edge="1" parent="1" source="1ea317790d2ca983-2" target="zeWfey3r2QctQwpU4ACz-9">
          <mxGeometry relative="1" as="geometry">
            <mxPoint x="818" y="307" as="sourcePoint" />
            <mxPoint x="754" y="393" as="targetPoint" />
          </mxGeometry>
        </mxCell>
        <mxCell id="zeWfey3r2QctQwpU4ACz-12" value="send msg" style="edgeStyle=none;rounded=1;html=1;labelBackgroundColor=none;startArrow=none;startFill=0;startSize=5;endArrow=classicThin;endFill=1;endSize=5;jettySize=auto;orthogonalLoop=1;strokeColor=#B3B3B3;strokeWidth=1;fontFamily=Verdana;fontSize=12;exitX=0.5;exitY=1;exitDx=0;exitDy=0;" edge="1" parent="1" source="zeWfey3r2QctQwpU4ACz-9" target="1ea317790d2ca983-8">
          <mxGeometry relative="1" as="geometry">
            <mxPoint x="864" y="440" as="sourcePoint" />
            <mxPoint x="800" y="526" as="targetPoint" />
          </mxGeometry>
        </mxCell>
        <mxCell id="zeWfey3r2QctQwpU4ACz-13" value="&lt;meta charset=&quot;utf-8&quot;&gt;&lt;span style=&quot;color: rgb(0, 0, 0); font-family: Verdana; font-size: 12px; font-style: normal; font-variant-ligatures: normal; font-variant-caps: normal; font-weight: 400; letter-spacing: normal; orphans: 2; text-align: center; text-indent: 0px; text-transform: none; widows: 2; word-spacing: 0px; -webkit-text-stroke-width: 0px; white-space: nowrap; background-color: rgb(251, 251, 251); text-decoration-thickness: initial; text-decoration-style: initial; text-decoration-color: initial; display: inline !important; float: none;&quot;&gt;send msg&lt;/span&gt;" style="edgeStyle=none;rounded=1;html=1;labelBackgroundColor=none;startArrow=none;startFill=0;startSize=5;endArrow=classicThin;endFill=1;endSize=5;jettySize=auto;orthogonalLoop=1;strokeColor=#B3B3B3;strokeWidth=1;fontFamily=Verdana;fontSize=12;entryX=0.4;entryY=0.2;entryDx=0;entryDy=0;entryPerimeter=0;exitX=0.5;exitY=1;exitDx=0;exitDy=0;" edge="1" parent="1" target="zeWfey3r2QctQwpU4ACz-14" source="zeWfey3r2QctQwpU4ACz-15">
          <mxGeometry relative="1" as="geometry">
            <mxPoint x="1043" y="432" as="sourcePoint" />
          </mxGeometry>
        </mxCell>
        <mxCell id="zeWfey3r2QctQwpU4ACz-14" value="service-his" style="ellipse;whiteSpace=wrap;html=1;rounded=0;shadow=1;comic=0;labelBackgroundColor=none;strokeWidth=1;fontFamily=Verdana;fontSize=12;align=center;" vertex="1" parent="1">
          <mxGeometry x="1055" y="520" width="75" height="50" as="geometry" />
        </mxCell>
        <mxCell id="zeWfey3r2QctQwpU4ACz-15" value="sdata-trans" style="ellipse;whiteSpace=wrap;html=1;rounded=0;shadow=1;comic=0;labelBackgroundColor=none;strokeWidth=1;fontFamily=Verdana;fontSize=12;align=center;" vertex="1" parent="1">
          <mxGeometry x="1000" y="382" width="75" height="50" as="geometry" />
        </mxCell>
        <mxCell id="zeWfey3r2QctQwpU4ACz-16" value="&lt;meta charset=&quot;utf-8&quot;&gt;&lt;span style=&quot;color: rgb(0, 0, 0); font-family: Verdana; font-size: 12px; font-style: normal; font-variant-ligatures: normal; font-variant-caps: normal; font-weight: 400; letter-spacing: normal; orphans: 2; text-align: center; text-indent: 0px; text-transform: none; widows: 2; word-spacing: 0px; -webkit-text-stroke-width: 0px; white-space: nowrap; background-color: rgb(251, 251, 251); text-decoration-thickness: initial; text-decoration-style: initial; text-decoration-color: initial; display: inline !important; float: none;&quot;&gt;send msg&lt;/span&gt;" style="edgeStyle=none;rounded=1;html=1;labelBackgroundColor=none;startArrow=none;startFill=0;startSize=5;endArrow=classicThin;endFill=1;endSize=5;jettySize=auto;orthogonalLoop=1;strokeColor=#B3B3B3;strokeWidth=1;fontFamily=Verdana;fontSize=12;exitX=1;exitY=1;exitDx=0;exitDy=0;" edge="1" parent="1" source="1ea317790d2ca983-2" target="zeWfey3r2QctQwpU4ACz-15">
          <mxGeometry relative="1" as="geometry">
            <mxPoint x="950" y="300" as="sourcePoint" />
            <mxPoint x="911" y="392" as="targetPoint" />
          </mxGeometry>
        </mxCell>
        <mxCell id="zeWfey3r2QctQwpU4ACz-17" value="qsah" style="ellipse;whiteSpace=wrap;html=1;rounded=0;shadow=1;comic=0;labelBackgroundColor=none;strokeWidth=1;fontFamily=Verdana;fontSize=12;align=center;" vertex="1" parent="1">
          <mxGeometry x="615" y="520" width="75" height="50" as="geometry" />
        </mxCell>
        <mxCell id="zeWfey3r2QctQwpU4ACz-18" value="&lt;meta charset=&quot;utf-8&quot;&gt;&lt;span style=&quot;color: rgb(0, 0, 0); font-family: Verdana; font-size: 12px; font-style: normal; font-variant-ligatures: normal; font-variant-caps: normal; font-weight: 400; letter-spacing: normal; orphans: 2; text-align: center; text-indent: 0px; text-transform: none; widows: 2; word-spacing: 0px; -webkit-text-stroke-width: 0px; white-space: nowrap; background-color: rgb(251, 251, 251); text-decoration-thickness: initial; text-decoration-style: initial; text-decoration-color: initial; display: inline !important; float: none;&quot;&gt;send msg&lt;/span&gt;" style="edgeStyle=none;rounded=1;html=1;labelBackgroundColor=none;startArrow=none;startFill=0;startSize=5;endArrow=classicThin;endFill=1;endSize=5;jettySize=auto;orthogonalLoop=1;strokeColor=#B3B3B3;strokeWidth=1;fontFamily=Verdana;fontSize=12;entryX=0.5;entryY=0;entryDx=0;entryDy=0;exitX=0.5;exitY=1;exitDx=0;exitDy=0;" edge="1" parent="1" source="1ea317790d2ca983-7" target="zeWfey3r2QctQwpU4ACz-17">
          <mxGeometry relative="1" as="geometry">
            <mxPoint x="745" y="440" as="sourcePoint" />
            <mxPoint x="780" y="560" as="targetPoint" />
          </mxGeometry>
        </mxCell>
        <mxCell id="zeWfey3r2QctQwpU4ACz-22" value="" style="endArrow=classic;html=1;rounded=0;exitX=0.5;exitY=0;exitDx=0;exitDy=0;entryX=0.707;entryY=0.98;entryDx=0;entryDy=0;entryPerimeter=0;" edge="1" parent="1" source="1ea317790d2ca983-2" target="zeWfey3r2QctQwpU4ACz-2">
          <mxGeometry width="50" height="50" relative="1" as="geometry">
            <mxPoint x="725" y="290" as="sourcePoint" />
            <mxPoint x="775" y="240" as="targetPoint" />
          </mxGeometry>
        </mxCell>
        <mxCell id="zeWfey3r2QctQwpU4ACz-23" value="cronjob" style="edgeLabel;html=1;align=center;verticalAlign=middle;resizable=0;points=[];" vertex="1" connectable="0" parent="zeWfey3r2QctQwpU4ACz-22">
          <mxGeometry x="0.129" relative="1" as="geometry">
            <mxPoint as="offset" />
          </mxGeometry>
        </mxCell>
        <mxCell id="zeWfey3r2QctQwpU4ACz-24" value="" style="endArrow=classic;html=1;rounded=0;entryX=0.5;entryY=1;entryDx=0;entryDy=0;" edge="1" parent="1" target="zeWfey3r2QctQwpU4ACz-3">
          <mxGeometry width="50" height="50" relative="1" as="geometry">
            <mxPoint x="870" y="250" as="sourcePoint" />
            <mxPoint x="623" y="189" as="targetPoint" />
          </mxGeometry>
        </mxCell>
        <mxCell id="zeWfey3r2QctQwpU4ACz-25" value="cronjob" style="edgeLabel;html=1;align=center;verticalAlign=middle;resizable=0;points=[];" vertex="1" connectable="0" parent="zeWfey3r2QctQwpU4ACz-24">
          <mxGeometry x="0.129" relative="1" as="geometry">
            <mxPoint as="offset" />
          </mxGeometry>
        </mxCell>
        <mxCell id="zeWfey3r2QctQwpU4ACz-28" value="" style="endArrow=classic;html=1;rounded=0;exitX=0.5;exitY=0;exitDx=0;exitDy=0;" edge="1" parent="1" source="1ea317790d2ca983-2">
          <mxGeometry width="50" height="50" relative="1" as="geometry">
            <mxPoint x="883" y="260" as="sourcePoint" />
            <mxPoint x="1010" y="180" as="targetPoint" />
          </mxGeometry>
        </mxCell>
        <mxCell id="zeWfey3r2QctQwpU4ACz-29" value="cronjob" style="edgeLabel;html=1;align=center;verticalAlign=middle;resizable=0;points=[];" vertex="1" connectable="0" parent="zeWfey3r2QctQwpU4ACz-28">
          <mxGeometry x="0.129" relative="1" as="geometry">
            <mxPoint as="offset" />
          </mxGeometry>
        </mxCell>
        <mxCell id="zeWfey3r2QctQwpU4ACz-30" value="" style="endArrow=classic;html=1;rounded=0;entryX=0.5;entryY=1;entryDx=0;entryDy=0;exitX=0.5;exitY=0;exitDx=0;exitDy=0;" edge="1" parent="1" source="1ea317790d2ca983-2" target="zeWfey3r2QctQwpU4ACz-6">
          <mxGeometry width="50" height="50" relative="1" as="geometry">
            <mxPoint x="870" y="250" as="sourcePoint" />
            <mxPoint x="1023" y="190" as="targetPoint" />
          </mxGeometry>
        </mxCell>
        <mxCell id="zeWfey3r2QctQwpU4ACz-31" value="cronjob" style="edgeLabel;html=1;align=center;verticalAlign=middle;resizable=0;points=[];" vertex="1" connectable="0" parent="zeWfey3r2QctQwpU4ACz-30">
          <mxGeometry x="0.129" relative="1" as="geometry">
            <mxPoint as="offset" />
          </mxGeometry>
        </mxCell>
        <mxCell id="zeWfey3r2QctQwpU4ACz-33" value="file" style="ellipse;whiteSpace=wrap;html=1;rounded=0;shadow=1;comic=0;labelBackgroundColor=none;strokeWidth=1;fontFamily=Verdana;fontSize=12;align=center;" vertex="1" parent="1">
          <mxGeometry x="1140" y="250" width="75" height="50" as="geometry" />
        </mxCell>
        <mxCell id="zeWfey3r2QctQwpU4ACz-34" value="生成文件" style="edgeStyle=none;rounded=1;html=1;labelBackgroundColor=none;startArrow=none;startFill=0;startSize=5;endArrow=classicThin;endFill=1;endSize=5;jettySize=auto;orthogonalLoop=1;strokeColor=#B3B3B3;strokeWidth=1;fontFamily=Verdana;fontSize=12;exitX=1;exitY=0.5;exitDx=0;exitDy=0;" edge="1" parent="1" source="1ea317790d2ca983-2" target="zeWfey3r2QctQwpU4ACz-33">
          <mxGeometry relative="1" as="geometry">
            <mxPoint x="909" y="303" as="sourcePoint" />
            <mxPoint x="1011" y="397" as="targetPoint" />
          </mxGeometry>
        </mxCell>
        <mxCell id="zeWfey3r2QctQwpU4ACz-35" value="cal-dce" style="ellipse;whiteSpace=wrap;html=1;rounded=0;shadow=1;comic=0;labelBackgroundColor=none;strokeWidth=1;fontFamily=Verdana;fontSize=12;align=center;" vertex="1" parent="1">
          <mxGeometry x="1300" y="280" width="75" height="50" as="geometry" />
        </mxCell>
        <mxCell id="zeWfey3r2QctQwpU4ACz-36" value="" style="endArrow=classic;html=1;rounded=0;exitX=1;exitY=0.5;exitDx=0;exitDy=0;" edge="1" parent="1" source="zeWfey3r2QctQwpU4ACz-33" target="zeWfey3r2QctQwpU4ACz-35">
          <mxGeometry width="50" height="50" relative="1" as="geometry">
            <mxPoint x="1010" y="310" as="sourcePoint" />
            <mxPoint x="1060" y="260" as="targetPoint" />
          </mxGeometry>
        </mxCell>
        <mxCell id="zeWfey3r2QctQwpU4ACz-38" value="" style="endArrow=classic;html=1;rounded=0;exitX=0.5;exitY=1;exitDx=0;exitDy=0;entryX=0.5;entryY=0;entryDx=0;entryDy=0;" edge="1" parent="1" source="zeWfey3r2QctQwpU4ACz-35" target="zeWfey3r2QctQwpU4ACz-40">
          <mxGeometry width="50" height="50" relative="1" as="geometry">
            <mxPoint x="1310" y="430" as="sourcePoint" />
            <mxPoint x="1250" y="370" as="targetPoint" />
          </mxGeometry>
        </mxCell>
        <mxCell id="zeWfey3r2QctQwpU4ACz-40" value="trans" style="ellipse;whiteSpace=wrap;html=1;rounded=0;shadow=1;comic=0;labelBackgroundColor=none;strokeWidth=1;fontFamily=Verdana;fontSize=12;align=center;" vertex="1" parent="1">
          <mxGeometry x="1440" y="382" width="75" height="50" as="geometry" />
        </mxCell>
        <mxCell id="zeWfey3r2QctQwpU4ACz-41" value="" style="endArrow=classic;html=1;rounded=0;exitX=0.5;exitY=1;exitDx=0;exitDy=0;" edge="1" parent="1" source="zeWfey3r2QctQwpU4ACz-40" target="zeWfey3r2QctQwpU4ACz-14">
          <mxGeometry width="50" height="50" relative="1" as="geometry">
            <mxPoint x="1338" y="310" as="sourcePoint" />
            <mxPoint x="1263" y="380" as="targetPoint" />
          </mxGeometry>
        </mxCell>
        <mxCell id="zeWfey3r2QctQwpU4ACz-42" value="" style="endArrow=classic;html=1;rounded=0;exitX=0.5;exitY=1;exitDx=0;exitDy=0;entryX=0.5;entryY=0;entryDx=0;entryDy=0;" edge="1" parent="1" source="zeWfey3r2QctQwpU4ACz-40" target="zeWfey3r2QctQwpU4ACz-8">
          <mxGeometry width="50" height="50" relative="1" as="geometry">
            <mxPoint x="1263" y="430" as="sourcePoint" />
            <mxPoint x="1127" y="536" as="targetPoint" />
          </mxGeometry>
        </mxCell>
        <mxCell id="zeWfey3r2QctQwpU4ACz-43" value="" style="endArrow=classic;html=1;rounded=0;exitX=0.5;exitY=1;exitDx=0;exitDy=0;entryX=0.267;entryY=0.08;entryDx=0;entryDy=0;entryPerimeter=0;" edge="1" parent="1" source="zeWfey3r2QctQwpU4ACz-40" target="1ea317790d2ca983-8">
          <mxGeometry width="50" height="50" relative="1" as="geometry">
            <mxPoint x="1263" y="430" as="sourcePoint" />
            <mxPoint x="993" y="530" as="targetPoint" />
          </mxGeometry>
        </mxCell>
        <mxCell id="zeWfey3r2QctQwpU4ACz-44" value="" style="endArrow=classic;html=1;rounded=0;entryX=0.5;entryY=0;entryDx=0;entryDy=0;exitX=0.5;exitY=1;exitDx=0;exitDy=0;" edge="1" parent="1" source="zeWfey3r2QctQwpU4ACz-40" target="zeWfey3r2QctQwpU4ACz-7">
          <mxGeometry width="50" height="50" relative="1" as="geometry">
            <mxPoint x="1250" y="430" as="sourcePoint" />
            <mxPoint x="865" y="534" as="targetPoint" />
          </mxGeometry>
        </mxCell>
        <mxCell id="zeWfey3r2QctQwpU4ACz-45" value="" style="endArrow=classic;html=1;rounded=0;entryX=0.5;entryY=0;entryDx=0;entryDy=0;exitX=0.5;exitY=1;exitDx=0;exitDy=0;" edge="1" parent="1" source="zeWfey3r2QctQwpU4ACz-40" target="zeWfey3r2QctQwpU4ACz-17">
          <mxGeometry width="50" height="50" relative="1" as="geometry">
            <mxPoint x="1260" y="430" as="sourcePoint" />
            <mxPoint x="773" y="530" as="targetPoint" />
          </mxGeometry>
        </mxCell>
        <mxCell id="zeWfey3r2QctQwpU4ACz-46" value="部分数据同步至redis" style="edgeStyle=none;rounded=1;html=1;labelBackgroundColor=none;startArrow=none;startFill=0;startSize=5;endArrow=classicThin;endFill=1;endSize=5;jettySize=auto;orthogonalLoop=1;strokeColor=#B3B3B3;strokeWidth=1;fontFamily=Verdana;fontSize=12;exitX=0;exitY=0.5;exitDx=0;exitDy=0;" edge="1" parent="1" source="1ea317790d2ca983-2">
          <mxGeometry relative="1" as="geometry">
            <mxPoint x="920" y="285" as="sourcePoint" />
            <mxPoint x="660" y="275" as="targetPoint" />
          </mxGeometry>
        </mxCell>
        <mxCell id="zeWfey3r2QctQwpU4ACz-49" value="sdata-cient" style="ellipse;whiteSpace=wrap;html=1;rounded=0;shadow=1;comic=0;labelBackgroundColor=none;strokeWidth=1;fontFamily=Verdana;fontSize=12;align=center;" vertex="1" parent="1">
          <mxGeometry x="500" y="382" width="75" height="50" as="geometry" />
        </mxCell>
        <mxCell id="zeWfey3r2QctQwpU4ACz-51" value="sdata-proxy-new" style="ellipse;whiteSpace=wrap;html=1;rounded=0;shadow=1;comic=0;labelBackgroundColor=none;strokeWidth=1;fontFamily=Verdana;fontSize=12;align=center;" vertex="1" parent="1">
          <mxGeometry x="393" y="245" width="120" height="50" as="geometry" />
        </mxCell>
        <mxCell id="zeWfey3r2QctQwpU4ACz-53" value="" style="endArrow=classic;html=1;rounded=0;entryX=0.5;entryY=1;entryDx=0;entryDy=0;" edge="1" parent="1" source="zeWfey3r2QctQwpU4ACz-49" target="zeWfey3r2QctQwpU4ACz-51">
          <mxGeometry width="50" height="50" relative="1" as="geometry">
            <mxPoint x="250" y="450" as="sourcePoint" />
            <mxPoint x="300" y="400" as="targetPoint" />
          </mxGeometry>
        </mxCell>
        <mxCell id="zeWfey3r2QctQwpU4ACz-55" value="" style="endArrow=classic;html=1;rounded=0;entryX=0.72;entryY=0.9;entryDx=0;entryDy=0;entryPerimeter=0;exitX=0.5;exitY=0;exitDx=0;exitDy=0;" edge="1" parent="1" source="zeWfey3r2QctQwpU4ACz-17" target="zeWfey3r2QctQwpU4ACz-49">
          <mxGeometry width="50" height="50" relative="1" as="geometry">
            <mxPoint x="560" y="590" as="sourcePoint" />
            <mxPoint x="610" y="540" as="targetPoint" />
          </mxGeometry>
        </mxCell>
        <mxCell id="zeWfey3r2QctQwpU4ACz-56" value="" style="endArrow=classic;html=1;rounded=0;exitX=0.413;exitY=-0.06;exitDx=0;exitDy=0;exitPerimeter=0;entryX=0.76;entryY=0.96;entryDx=0;entryDy=0;entryPerimeter=0;" edge="1" parent="1" source="zeWfey3r2QctQwpU4ACz-7" target="zeWfey3r2QctQwpU4ACz-49">
          <mxGeometry width="50" height="50" relative="1" as="geometry">
            <mxPoint x="663" y="530" as="sourcePoint" />
            <mxPoint x="560" y="480" as="targetPoint" />
          </mxGeometry>
        </mxCell>
        <mxCell id="zeWfey3r2QctQwpU4ACz-58" value="" style="endArrow=classic;html=1;rounded=0;exitX=0.427;exitY=0.08;exitDx=0;exitDy=0;exitPerimeter=0;entryX=0.72;entryY=0.96;entryDx=0;entryDy=0;entryPerimeter=0;" edge="1" parent="1" source="1ea317790d2ca983-8" target="zeWfey3r2QctQwpU4ACz-49">
          <mxGeometry width="50" height="50" relative="1" as="geometry">
            <mxPoint x="766" y="527" as="sourcePoint" />
            <mxPoint x="560" y="480" as="targetPoint" />
          </mxGeometry>
        </mxCell>
        <mxCell id="zeWfey3r2QctQwpU4ACz-59" value="" style="endArrow=classic;html=1;rounded=0;exitX=0.5;exitY=0;exitDx=0;exitDy=0;entryX=0.707;entryY=0.92;entryDx=0;entryDy=0;entryPerimeter=0;" edge="1" parent="1" source="zeWfey3r2QctQwpU4ACz-8" target="zeWfey3r2QctQwpU4ACz-49">
          <mxGeometry width="50" height="50" relative="1" as="geometry">
            <mxPoint x="877" y="534" as="sourcePoint" />
            <mxPoint x="570" y="490" as="targetPoint" />
          </mxGeometry>
        </mxCell>
        <mxCell id="zeWfey3r2QctQwpU4ACz-60" value="" style="endArrow=classic;html=1;rounded=0;exitX=0.267;exitY=0.1;exitDx=0;exitDy=0;entryX=1;entryY=1;entryDx=0;entryDy=0;exitPerimeter=0;" edge="1" parent="1" source="zeWfey3r2QctQwpU4ACz-14" target="zeWfey3r2QctQwpU4ACz-49">
          <mxGeometry width="50" height="50" relative="1" as="geometry">
            <mxPoint x="993" y="530" as="sourcePoint" />
            <mxPoint x="563" y="486" as="targetPoint" />
          </mxGeometry>
        </mxCell>
        <mxCell id="zeWfey3r2QctQwpU4ACz-64" value="redis" style="shape=cylinder3;whiteSpace=wrap;html=1;boundedLbl=1;backgroundOutline=1;size=15;" vertex="1" parent="1">
          <mxGeometry x="600" y="230" width="60" height="80" as="geometry" />
        </mxCell>
        <mxCell id="zeWfey3r2QctQwpU4ACz-67" value="" style="endArrow=classic;html=1;rounded=0;exitX=1;exitY=0.5;exitDx=0;exitDy=0;" edge="1" parent="1" source="zeWfey3r2QctQwpU4ACz-51" target="zeWfey3r2QctQwpU4ACz-64">
          <mxGeometry width="50" height="50" relative="1" as="geometry">
            <mxPoint x="530" y="350" as="sourcePoint" />
            <mxPoint x="580" y="300" as="targetPoint" />
          </mxGeometry>
        </mxCell>
        <mxCell id="zeWfey3r2QctQwpU4ACz-68" value="cal-shsz" style="ellipse;whiteSpace=wrap;html=1;rounded=0;shadow=1;comic=0;labelBackgroundColor=none;strokeWidth=1;fontFamily=Verdana;fontSize=12;align=center;" vertex="1" parent="1">
          <mxGeometry x="1300" y="200" width="75" height="50" as="geometry" />
        </mxCell>
        <mxCell id="zeWfey3r2QctQwpU4ACz-69" value="" style="endArrow=classic;html=1;rounded=0;" edge="1" parent="1" source="zeWfey3r2QctQwpU4ACz-33" target="zeWfey3r2QctQwpU4ACz-68">
          <mxGeometry width="50" height="50" relative="1" as="geometry">
            <mxPoint x="1225" y="285" as="sourcePoint" />
            <mxPoint x="1300" y="285" as="targetPoint" />
          </mxGeometry>
        </mxCell>
        <mxCell id="zeWfey3r2QctQwpU4ACz-70" value="" style="endArrow=classic;html=1;rounded=0;entryX=0.5;entryY=0;entryDx=0;entryDy=0;" edge="1" parent="1" source="zeWfey3r2QctQwpU4ACz-68" target="zeWfey3r2QctQwpU4ACz-40">
          <mxGeometry width="50" height="50" relative="1" as="geometry">
            <mxPoint x="1340" y="360" as="sourcePoint" />
            <mxPoint x="1390" y="310" as="targetPoint" />
          </mxGeometry>
        </mxCell>
        <mxCell id="zeWfey3r2QctQwpU4ACz-71" value="cal-*" style="ellipse;whiteSpace=wrap;html=1;rounded=0;shadow=1;comic=0;labelBackgroundColor=none;strokeWidth=1;fontFamily=Verdana;fontSize=12;align=center;" vertex="1" parent="1">
          <mxGeometry x="1300" y="120" width="75" height="50" as="geometry" />
        </mxCell>
        <mxCell id="zeWfey3r2QctQwpU4ACz-72" value="" style="endArrow=classic;html=1;rounded=0;" edge="1" parent="1" target="zeWfey3r2QctQwpU4ACz-71" source="zeWfey3r2QctQwpU4ACz-33">
          <mxGeometry width="50" height="50" relative="1" as="geometry">
            <mxPoint x="1220" y="213" as="sourcePoint" />
            <mxPoint x="1310" y="235" as="targetPoint" />
          </mxGeometry>
        </mxCell>
        <mxCell id="zeWfey3r2QctQwpU4ACz-73" value="" style="endArrow=classic;html=1;rounded=0;entryX=0.407;entryY=0.06;entryDx=0;entryDy=0;entryPerimeter=0;" edge="1" parent="1" source="zeWfey3r2QctQwpU4ACz-71" target="zeWfey3r2QctQwpU4ACz-40">
          <mxGeometry width="50" height="50" relative="1" as="geometry">
            <mxPoint x="1350" y="310" as="sourcePoint" />
            <mxPoint x="1500" y="325" as="targetPoint" />
          </mxGeometry>
        </mxCell>
        <mxCell id="zeWfey3r2QctQwpU4ACz-75" value="oracle" style="shape=cylinder3;whiteSpace=wrap;html=1;boundedLbl=1;backgroundOutline=1;size=15;" vertex="1" parent="1">
          <mxGeometry x="842.5" y="115" width="60" height="80" as="geometry" />
        </mxCell>
        <mxCell id="zeWfey3r2QctQwpU4ACz-76" value="" style="endArrow=classic;html=1;rounded=0;exitX=0.5;exitY=0;exitDx=0;exitDy=0;entryX=0.5;entryY=1;entryDx=0;entryDy=0;entryPerimeter=0;" edge="1" parent="1" source="1ea317790d2ca983-2" target="zeWfey3r2QctQwpU4ACz-75">
          <mxGeometry width="50" height="50" relative="1" as="geometry">
            <mxPoint x="1010" y="360" as="sourcePoint" />
            <mxPoint x="1060" y="310" as="targetPoint" />
          </mxGeometry>
        </mxCell>
        <mxCell id="zeWfey3r2QctQwpU4ACz-78" value="&lt;span style=&quot;color: rgba(0, 0, 0, 0); font-family: monospace; font-size: 0px; text-align: start; background-color: rgb(251, 251, 251);&quot;&gt;ccrontab&lt;/span&gt;" style="edgeLabel;html=1;align=center;verticalAlign=middle;resizable=0;points=[];" vertex="1" connectable="0" parent="zeWfey3r2QctQwpU4ACz-76">
          <mxGeometry x="0.0182" y="1" relative="1" as="geometry">
            <mxPoint x="1" as="offset" />
          </mxGeometry>
        </mxCell>
        <mxCell id="zeWfey3r2QctQwpU4ACz-79" value="cronjob" style="edgeLabel;html=1;align=center;verticalAlign=middle;resizable=0;points=[];" vertex="1" connectable="0" parent="zeWfey3r2QctQwpU4ACz-76">
          <mxGeometry x="-0.0545" y="2" relative="1" as="geometry">
            <mxPoint x="1" as="offset" />
          </mxGeometry>
        </mxCell>
      </root>
    </mxGraphModel>
  </diagram>
</mxfile>
